<svg xmlns="http://www.w3.org/2000/svg" viewBox="0 0 280 280">
  <!-- Dreamer — soft indigo bg, head-in-clouds dreamy look -->
  <circle cx="140" cy="140" r="140" fill="#EAE8FF"/>

  <!-- Clouds behind hair (head-in-clouds motif) -->
  <g opacity="0.55" fill="#FFFFFF">
    <ellipse cx="70" cy="78" rx="34" ry="18"/>
    <ellipse cx="92" cy="68" rx="26" ry="15"/>
    <ellipse cx="210" cy="74" rx="36" ry="18"/>
    <ellipse cx="190" cy="64" rx="24" ry="14"/>
  </g>

  <!-- Shoulders / top -->
  <path d="M52 280 C60 224 96 206 140 206 C184 206 220 224 228 280 Z" fill="#C5C2F0"/>
  <path d="M52 280 C60 224 96 206 140 206 C184 206 220 224 228 280 Z" fill="#A8A3E0" opacity="0.35"/>
  <!-- collar -->
  <path d="M118 210 C128 222 152 222 162 210 L156 206 C146 214 134 214 124 206 Z" fill="#FFFFFF" opacity="0.85"/>

  <!-- Neck -->
  <path d="M122 178 L122 206 C128 214 152 214 158 206 L158 178 Z" fill="#F0C8A8"/>
  <path d="M122 196 C128 204 152 204 158 196 L158 178 L122 178 Z" fill="#E0B090" opacity="0.6"/>

  <!-- Hair back (flowy wavy lavender) -->
  <path d="M44 150 C40 96 78 44 140 44 C202 44 240 96 236 150 C236 184 230 212 220 236 C214 250 206 256 200 256 C210 220 206 192 198 174 C192 188 184 196 176 198 C186 168 182 138 168 120 C150 140 110 146 84 130 C92 158 88 180 78 196 C66 190 60 180 56 168 C50 192 50 222 60 252 C50 246 46 236 44 222 Z" fill="#B8B0E8"/>
  <path d="M44 150 C40 96 78 44 140 44 C202 44 240 96 236 150 C236 170 234 188 230 204 C232 178 228 154 220 138 C214 158 204 168 192 170 C198 144 192 116 180 100 C164 118 130 124 106 112 C112 138 108 158 98 172 C84 168 74 158 68 144 C62 168 62 200 70 228 C58 222 50 210 46 192 C44 178 43 164 44 150 Z" fill="#CDC6F0"/>

  <!-- Face base -->
  <path d="M70 132 C70 92 100 70 140 70 C180 70 210 92 210 132 C210 174 182 206 140 206 C98 206 70 174 70 132 Z" fill="#FFE0C8"/>
  <!-- Face shadow (right side) -->
  <path d="M186 88 C202 100 210 116 210 132 C210 174 182 206 140 206 C128 206 117 204 108 200 C148 196 178 168 184 130 C186 116 187 102 186 88 Z" fill="#F0C8A8" opacity="0.55"/>

  <!-- Ears -->
  <ellipse cx="72" cy="140" rx="8" ry="12" fill="#FFE0C8"/>
  <ellipse cx="208" cy="140" rx="8" ry="12" fill="#F0C8A8"/>

  <!-- Hair front (bangs, flowy wavy pieces) -->
  <path d="M64 130 C60 96 96 60 140 60 C184 60 220 96 216 130 C214 140 210 146 206 150 C208 130 202 112 192 100 C196 116 192 132 182 142 C186 122 180 104 168 92 C170 112 164 128 152 138 C154 118 150 102 140 92 C130 104 126 120 128 138 C116 128 110 112 112 92 C100 104 94 122 98 142 C88 132 82 116 86 100 C76 112 70 130 72 150 C68 146 65 140 64 130 Z" fill="#B8B0E8"/>
  <!-- hair shadow tone -->
  <path d="M86 110 C100 96 118 88 140 86 C162 88 180 96 194 110 C184 100 168 94 152 92 C160 104 162 120 156 134 C150 120 142 110 134 102 C124 114 118 126 120 140 C106 128 98 112 100 94 C92 100 88 106 86 110 Z" fill="#A39BD8" opacity="0.55"/>
  <!-- side wavy strands -->
  <path d="M60 150 C54 168 56 192 64 212 C60 192 60 172 66 156 Z" fill="#A39BD8"/>
  <path d="M220 150 C226 168 224 192 216 212 C220 192 220 172 214 156 Z" fill="#A39BD8"/>

  <!-- Eyebrows (soft, relaxed) -->
  <path d="M98 122 C108 118 122 118 130 122" stroke="#8A82C0" stroke-width="3" stroke-linecap="round" fill="none"/>
  <path d="M150 122 C158 118 172 118 182 122" stroke="#8A82C0" stroke-width="3" stroke-linecap="round" fill="none"/>

  <!-- Eyes: half-closed, looking up dreamily -->
  <path d="M100 138 C108 134 124 134 130 138 C124 140 108 140 100 138 Z" fill="#FFFFFF"/>
  <ellipse cx="116" cy="139" rx="9" ry="5" fill="#9BB0E0"/>
  <ellipse cx="116" cy="140" rx="6" ry="3.2" fill="#7A95D0"/>
  <path d="M98 138 C108 133 124 133 132 138" stroke="#5A4A8A" stroke-width="2.4" stroke-linecap="round" fill="none"/>
  <path d="M98 138 C108 142 124 142 132 138" stroke="#E0B090" stroke-width="1.6" stroke-linecap="round" fill="none"/>
  <circle cx="118" cy="137.5" r="1.8" fill="#FFFFFF"/>

  <path d="M150 138 C158 134 172 134 180 138 C172 140 158 140 150 138 Z" fill="#FFFFFF"/>
  <ellipse cx="165" cy="139" rx="9" ry="5" fill="#9BB0E0"/>
  <ellipse cx="165" cy="140" rx="6" ry="3.2" fill="#7A95D0"/>
  <path d="M148 138 C158 133 172 133 182 138" stroke="#5A4A8A" stroke-width="2.4" stroke-linecap="round" fill="none"/>
  <path d="M148 138 C158 142 172 142 182 138" stroke="#E0B090" stroke-width="1.6" stroke-linecap="round" fill="none"/>
  <circle cx="167" cy="137.5" r="1.8" fill="#FFFFFF"/>

  <!-- Nose -->
  <path d="M139 158 C137 164 137 168 140 169 C143 168 143 164 141 158" stroke="#E0B090" stroke-width="1.4" stroke-linecap="round" fill="none"/>

  <!-- Soft peaceful smile -->
  <path d="M126 182 C134 188 146 188 154 182" stroke="#C9786A" stroke-width="2.6" stroke-linecap="round" fill="none"/>
  <path d="M128 183 C134 187 146 187 152 183 C146 184.5 134 184.5 128 183 Z" fill="#E8A89A" opacity="0.6"/>

  <!-- Blush -->
  <ellipse cx="104" cy="168" rx="11" ry="6" fill="#F5B0B8" opacity="0.5"/>
  <ellipse cx="176" cy="168" rx="11" ry="6" fill="#F5B0B8" opacity="0.5"/>

  <!-- Tiny star sparkles near hair -->
  <g fill="#FFF7C0">
    <path d="M196 86 L197.6 90.4 L202 92 L197.6 93.6 L196 98 L194.4 93.6 L190 92 L194.4 90.4 Z"/>
    <path d="M214 116 L215 118.5 L217.5 119.5 L215 120.5 L214 123 L213 120.5 L210.5 119.5 L213 118.5 Z" opacity="0.85"/>
    <path d="M68 100 L69 102 L71 103 L69 104 L68 106 L67 104 L65 103 L67 102 Z" opacity="0.8"/>
  </g>
</svg>
