<svg xmlns="http://www.w3.org/2000/svg" viewBox="0 0 280 280">
  <circle cx="140" cy="140" r="140" fill="#FFF8E8"/>
  <!-- Shoulders / uniform -->
  <path d="M40 280 Q40 210 90 195 L110 188 Q140 205 170 188 L190 195 Q240 210 240 280 Z" fill="#7A9DB5"/>
  <path d="M110 188 Q140 205 170 188 L170 200 Q140 215 110 200 Z" fill="#668AA3"/>
  <!-- Collar -->
  <path d="M118 192 L140 208 L162 192 L162 200 L140 214 L118 200 Z" fill="#FFFFFF"/>
  <!-- Necktie ribbon -->
  <path d="M137 200 L143 200 L145 232 L135 232 Z" fill="#C0506A"/>
  <!-- Neck -->
  <path d="M122 165 L122 195 Q140 205 158 195 L158 165 Z" fill="#FFDEC4"/>
  <path d="M122 180 Q140 192 158 180 L158 195 Q140 205 122 195 Z" fill="#F0C0A4"/>
  <!-- Hair back (dark brown bob) -->
  <path d="M56 130 Q52 75 100 56 Q140 42 180 56 Q228 75 224 130 L224 170 Q210 165 205 158 L205 110 Q200 92 140 92 Q80 92 75 110 L75 158 Q70 165 56 170 Z" fill="#4A3228"/>
  <!-- Face -->
  <ellipse cx="140" cy="120" rx="76" ry="80" fill="#FFDEC4"/>
  <!-- Face shadow -->
  <path d="M140 44 Q186 50 215 92 Q215 128 198 145 L198 110 Q190 92 140 92 Z" fill="#F0C0A4" opacity="0.5"/>
  <!-- Bob ends framing face -->
  <path d="M60 130 Q56 175 70 188 L86 178 Q76 150 76 130 Z" fill="#4A3228"/>
  <path d="M220 130 Q224 175 210 188 L194 178 Q204 150 204 130 Z" fill="#4A3228"/>
  <!-- Bangs (dark brown, side-swept) -->
  <path d="M64 108 Q60 68 105 56 Q140 48 178 56 Q216 68 216 110 Q200 92 178 100 L168 118 Q158 100 138 104 L128 120 Q115 100 95 108 L78 120 Q72 110 64 108 Z" fill="#5E4034"/>
  <!-- Side-swept bang detail -->
  <path d="M150 100 Q186 96 214 108 L208 128 Q188 110 158 112 Z" fill="#3E2A22"/>
  <!-- Hair clip -->
  <g transform="translate(108 96)">
    <rect x="0" y="0" width="16" height="7" rx="2" fill="#E85D8A"/>
    <rect x="2" y="1.5" width="12" height="4" rx="1.5" fill="#F08AB0"/>
    <circle cx="14" cy="3.5" r="2.5" fill="#FFD66A"/>
  </g>
  <!-- Ears -->
  <ellipse cx="65" cy="128" rx="9" ry="12" fill="#FFDEC4"/>
  <ellipse cx="215" cy="128" rx="9" ry="12" fill="#FFDEC4"/>
  <!-- Eyebrows -->
  <path d="M100 110 Q114 105 128 110" stroke="#3A2418" stroke-width="3.5" fill="none" stroke-linecap="round"/>
  <path d="M152 110 Q166 105 180 110" stroke="#3A2418" stroke-width="3.5" fill="none" stroke-linecap="round"/>
  <!-- Eyes: warm amber, attentive -->
  <g>
    <path d="M96 136 Q113 124 130 136 Q113 152 96 136 Z" fill="#FFFFFF"/>
    <ellipse cx="113" cy="136" rx="10" ry="11" fill="#A06A2E"/>
    <ellipse cx="113" cy="136" rx="10" ry="11" fill="#7A4E1E" opacity="0.5"/>
    <circle cx="113" cy="139" r="5" fill="#3A2410"/>
    <circle cx="110" cy="133" r="2.5" fill="#FFFFFF"/>
    <circle cx="116" cy="142" r="1.4" fill="#FFFFFF"/>
    <path d="M96 136 Q113 124 130 136" stroke="#3A3A3A" stroke-width="2" fill="none"/>
  </g>
  <g>
    <path d="M150 136 Q167 124 184 136 Q167 152 150 136 Z" fill="#FFFFFF"/>
    <ellipse cx="167" cy="136" rx="10" ry="11" fill="#A06A2E"/>
    <ellipse cx="167" cy="136" rx="10" ry="11" fill="#7A4E1E" opacity="0.5"/>
    <circle cx="167" cy="139" r="5" fill="#3A2410"/>
    <circle cx="164" cy="133" r="2.5" fill="#FFFFFF"/>
    <circle cx="170" cy="142" r="1.4" fill="#FFFFFF"/>
    <path d="M150 136 Q167 124 184 136" stroke="#3A3A3A" stroke-width="2" fill="none"/>
  </g>
  <!-- Blush -->
  <ellipse cx="96" cy="158" rx="9" ry="5" fill="#F5A8A0" opacity="0.5"/>
  <ellipse cx="184" cy="158" rx="9" ry="5" fill="#F5A8A0" opacity="0.5"/>
  <!-- Nose -->
  <path d="M139 150 Q137 158 141 161" stroke="#E0AE92" stroke-width="2" fill="none" stroke-linecap="round"/>
  <!-- Mouth: soft small smile -->
  <path d="M132 173 Q140 180 149 173" stroke="#B05A50" stroke-width="2.5" fill="none" stroke-linecap="round"/>
</svg>
