<svg xmlns="http://www.w3.org/2000/svg" viewBox="0 0 24 24" width="100%" height="100%">
  <style>
    path:not([fill="none"]), 
    circle:not([fill="none"]), 
    rect:not([fill="none"]), 
    polygon:not([fill="none"]), 
    ellipse:not([fill="none"]) {
      fill: #475569 !important;
    }
    path[stroke]:not([stroke="none"]), 
    circle[stroke]:not([stroke="none"]), 
    rect[stroke]:not([stroke="none"]), 
    polygon[stroke]:not([stroke="none"]) {
      stroke: #475569 !important;
    }
    @media (prefers-color-scheme: dark) {
      path:not([fill="none"]), 
      circle:not([fill="none"]), 
      rect:not([fill="none"]), 
      polygon:not([fill="none"]), 
      ellipse:not([fill="none"]) {
        fill: #cbd5e1 !important;
      }
      path[stroke]:not([stroke="none"]), 
      circle[stroke]:not([stroke="none"]), 
      rect[stroke]:not([stroke="none"]), 
      polygon[stroke]:not([stroke="none"]) {
        stroke: #cbd5e1 !important;
      }
    }
  </style>

  

  <path d="M4.5 9.5a2.5 2.5 0 1 1-5 0 2.5 2.5 0 0 1 5 0zm4.5-4a3 3 0 1 1-6 0 3 3 0 0 1 6 0zm6 0a3 3 0 1 1-6 0 3 3 0 0 1 6 0zm4.5 4a2.5 2.5 0 1 1-5 0 2.5 2.5 0 0 1 5 0zM12 11c-2.8 0-5 2.2-5 5 0 2.2 2.2 4 5 4s5-1.8 5-4c0-2.8-2.2-5-5-5z" />
</svg>