<svg height="1em" style="flex:none;line-height:1" viewBox="0 0 24 24" width="1em" xmlns="http://www.w3.org/2000/svg">
  <style>
    path:not([fill="none"]), 
    circle:not([fill="none"]), 
    rect:not([fill="none"]), 
    polygon:not([fill="none"]), 
    ellipse:not([fill="none"]) {
      fill: #475569 !important;
    }
    path[stroke]:not([stroke="none"]), 
    circle[stroke]:not([stroke="none"]), 
    rect[stroke]:not([stroke="none"]), 
    polygon[stroke]:not([stroke="none"]) {
      stroke: #475569 !important;
    }
    @media (prefers-color-scheme: dark) {
      path:not([fill="none"]), 
      circle:not([fill="none"]), 
      rect:not([fill="none"]), 
      polygon:not([fill="none"]), 
      ellipse:not([fill="none"]) {
        fill: #cbd5e1 !important;
      }
      path[stroke]:not([stroke="none"]), 
      circle[stroke]:not([stroke="none"]), 
      rect[stroke]:not([stroke="none"]), 
      polygon[stroke]:not([stroke="none"]) {
        stroke: #cbd5e1 !important;
      }
    }
  </style>
<title>SiliconCloud</title><path clip-rule="evenodd" d="M22.956 6.521H12.522c-.577 0-1.044.468-1.044 1.044v3.13c0 .577-.466 1.044-1.043 1.044H1.044c-.577 0-1.044.467-1.044 1.044v4.174C0 17.533.467 18 1.044 18h10.434c.577 0 1.044-.467 1.044-1.043v-3.13c0-.578.466-1.044 1.043-1.044h9.391c.577 0 1.044-.467 1.044-1.044V7.565c0-.576-.467-1.044-1.044-1.044z" fill="#6E29F6" fill-rule="evenodd"></path></svg>